<?xml version="1.0" encoding="UTF-8"?>
<svg id="Layer_2" data-name="Layer 2" xmlns="http://www.w3.org/2000/svg" viewBox="0 0 269.73 295.53">
  <defs>
    <style>
      .cls-1 {
        stroke-width: 0px;
      }
    </style>
  </defs>
  <g id="Layer_1-2" data-name="Layer 1">
    <path class="cls-1" fill="#12eb53" d="M13.53,29.42c2.47,4.13,4.72,8.31,7.37,12.22,2.11,3.11,4.61,5.98,7.12,8.8,5.11,5.75,11.13,10.46,17.64,14.51,3.55,2.21,7.14,4.44,10.9,6.25,6.9,3.33,13.92,6.42,20.94,9.51,6.26,2.76,12.57,5.4,18.86,8.1,6.75,2.9,13.52,5.78,20.26,8.71,5.09,2.22,10.15,4.52,15.23,6.77,6.76,2.99,13.54,5.94,20.29,8.95,6.47,2.88,12.93,5.79,19.38,8.71,3,1.35,5.98,2.74,8.96,4.13,7.45,3.47,14.94,6.86,22.33,10.47,4.25,2.08,8.36,4.45,12.46,6.81,3.63,2.09,7.27,4.19,10.69,6.59,5.04,3.52,9.96,7.24,14.82,11.02,2.49,1.94,4.89,4.06,7.07,6.35,5.14,5.39,9.61,11.29,13.07,17.94,2.81,5.4,5.13,10.97,6.46,16.89.83,3.7,1.36,7.47,1.85,11.24.33,2.5.53,5.05.48,7.58-.14,7.13-1.06,14.17-2.97,21.07-1.48,5.32-3.31,10.51-5.83,15.43-1.43,2.78-2.91,5.54-4.38,8.3-.13.24-.33.43-.5.63-1.63-2.93-3.09-5.91-4.87-8.68-2.1-3.25-4.4-6.39-6.78-9.45-1.8-2.3-3.75-4.52-5.84-6.56-5.28-5.16-11.12-9.61-17.5-13.35-5.96-3.5-12.28-6.26-18.63-8.94-4.04-1.71-8.02-3.52-12.04-5.28-4.95-2.16-9.9-4.3-14.84-6.46-4.08-1.79-8.15-3.62-12.23-5.42-6.23-2.74-12.47-5.47-18.7-8.21-7.62-3.36-15.24-6.74-22.86-10.12-5.9-2.62-11.8-5.24-17.7-7.87-7.4-3.3-14.83-6.53-22.18-9.93-7.58-3.51-15.18-7-22.58-10.86-5.89-3.08-11.61-6.53-17.18-10.17-4-2.61-7.69-5.71-11.39-8.75-2.81-2.31-5.54-4.76-8.09-7.36-5.06-5.15-9.54-10.76-13.05-17.12-3.9-7.08-6.73-14.54-8.13-22.5-.55-3.13-.92-6.3-1.19-9.46-.23-2.65-.3-5.32-.24-7.98.11-4.81.59-9.6,1.8-14.25,1.21-4.67,2.56-9.34,4.24-13.86,1.9-5.12,4.47-9.96,7.48-14.38Z"/>
    <path class="cls-1" fill="#12eb53" d="M269.46,0v102.19c-29.76-17.04-59.36-34-89.21-51.09,29.79-17.06,59.43-34.04,89.21-51.1Z"/>
    <path class="cls-1" fill="#12eb53" d="M.33,193.51c29.71,17.03,59.21,33.94,88.95,50.98-29.72,17.05-59.26,33.99-88.95,51.03v-102.01Z"/>
  </g>
</svg>